<?xml version="1.0" encoding="UTF-8"?>
<svg xmlns="http://www.w3.org/2000/svg" xmlns:xlink="http://www.w3.org/1999/xlink" width="320px" height="320px" viewBox="0 0 320 320" version="1.1">
<g id="surface1">
<path style=" stroke:none;fill-rule:nonzero;fill:rgb(29.019608%,73.72549%,58.823529%);fill-opacity:1;" d="M 0 160.003906 C 0 71.628906 71.632812 0 159.996094 0 C 248.367188 0 320 71.628906 320 160.003906 C 320 248.363281 248.367188 320 159.996094 320 C 71.636719 320 0 248.363281 0 160.003906 Z M 0 160.003906 "/>
<path style=" stroke:none;fill-rule:nonzero;fill:rgb(56.078431%,51.372549%,46.27451%);fill-opacity:1;" d="M 251.261719 118.582031 L 231.167969 118.582031 L 231.167969 71.605469 C 231.167969 67.902344 228.167969 64.90625 224.46875 64.90625 L 95.535156 64.90625 C 91.835938 64.90625 88.835938 67.90625 88.835938 71.605469 L 88.835938 118.582031 L 68.746094 118.582031 C 65.042969 118.582031 62.046875 121.582031 62.046875 125.277344 L 62.046875 254.214844 C 62.046875 257.914062 65.046875 260.910156 68.746094 260.910156 L 251.261719 260.910156 C 254.960938 260.910156 257.957031 257.910156 257.957031 254.214844 L 257.957031 125.277344 C 257.957031 121.578125 254.960938 118.582031 251.261719 118.582031 Z M 251.261719 118.582031 "/>
<path style=" stroke:none;fill-rule:nonzero;fill:rgb(57.647059%,53.72549%,50.196078%);fill-opacity:1;" d="M 159.390625 64.902344 L 95.535156 64.902344 C 91.835938 64.902344 88.835938 67.902344 88.835938 71.601562 L 88.835938 118.582031 L 68.746094 118.582031 C 65.042969 118.582031 62.046875 121.578125 62.046875 125.277344 L 62.046875 254.210938 C 62.046875 257.910156 65.046875 260.90625 68.746094 260.90625 L 159.394531 260.90625 L 159.394531 64.902344 Z M 159.390625 64.902344 "/>
<path style=" stroke:none;fill-rule:nonzero;fill:rgb(50.980392%,47.058824%,42.745098%);fill-opacity:1;" d="M 126.496094 266.375 C 125.140625 266.375 124.039062 265.273438 124.039062 263.914062 L 124.039062 216.578125 C 124.039062 215.21875 125.140625 214.117188 126.496094 214.117188 L 193.507812 214.117188 C 194.867188 214.117188 195.96875 215.21875 195.96875 216.578125 L 195.96875 263.914062 C 195.96875 265.273438 194.867188 266.375 193.507812 266.375 Z M 126.496094 266.375 "/>
<path style=" stroke:none;fill-rule:nonzero;fill:rgb(51.764706%,49.019608%,46.666667%);fill-opacity:1;" d="M 126.496094 266.375 C 125.140625 266.375 124.039062 265.273438 124.039062 263.914062 L 124.039062 216.578125 C 124.039062 215.21875 125.140625 214.117188 126.496094 214.117188 L 159.390625 214.117188 L 159.390625 266.375 Z M 126.496094 266.375 "/>
<path style=" stroke:none;fill-rule:nonzero;fill:rgb(94.509804%,92.941176%,80.392157%);fill-opacity:1;" d="M 117.582031 159.664062 C 117.582031 161.164062 116.363281 162.382812 114.863281 162.382812 L 85.972656 162.382812 C 84.46875 162.382812 83.253906 161.164062 83.253906 159.664062 L 83.253906 144.371094 C 83.253906 142.867188 84.46875 141.648438 85.972656 141.648438 L 114.863281 141.648438 C 116.363281 141.648438 117.582031 142.867188 117.582031 144.371094 Z M 117.582031 159.664062 "/>
<path style=" stroke:none;fill-rule:nonzero;fill:rgb(94.509804%,92.941176%,80.392157%);fill-opacity:1;" d="M 177.304688 159.664062 C 177.304688 161.164062 176.085938 162.382812 174.585938 162.382812 L 145.695312 162.382812 C 144.195312 162.382812 142.980469 161.164062 142.980469 159.664062 L 142.980469 144.371094 C 142.980469 142.867188 144.195312 141.648438 145.695312 141.648438 L 174.585938 141.648438 C 176.089844 141.648438 177.304688 142.867188 177.304688 144.371094 Z M 177.304688 159.664062 "/>
<path style=" stroke:none;fill-rule:nonzero;fill:rgb(94.509804%,92.941176%,80.392157%);fill-opacity:1;" d="M 234.800781 159.664062 C 234.800781 161.164062 233.582031 162.382812 232.082031 162.382812 L 203.191406 162.382812 C 201.6875 162.382812 200.472656 161.164062 200.472656 159.664062 L 200.472656 144.371094 C 200.472656 142.867188 201.691406 141.648438 203.191406 141.648438 L 232.082031 141.648438 C 233.582031 141.648438 234.800781 142.867188 234.800781 144.371094 Z M 234.800781 159.664062 "/>
<path style=" stroke:none;fill-rule:nonzero;fill:rgb(94.509804%,92.941176%,80.392157%);fill-opacity:1;" d="M 117.582031 199.078125 C 117.582031 200.582031 116.363281 201.796875 114.863281 201.796875 L 85.972656 201.796875 C 84.46875 201.796875 83.253906 200.578125 83.253906 199.078125 L 83.253906 183.78125 C 83.253906 182.28125 84.46875 181.066406 85.972656 181.066406 L 114.863281 181.066406 C 116.363281 181.066406 117.582031 182.28125 117.582031 183.78125 Z M 117.582031 199.078125 "/>
<path style=" stroke:none;fill-rule:nonzero;fill:rgb(94.509804%,92.941176%,80.392157%);fill-opacity:1;" d="M 177.304688 199.078125 C 177.304688 200.582031 176.085938 201.796875 174.585938 201.796875 L 145.695312 201.796875 C 144.195312 201.796875 142.980469 200.578125 142.980469 199.078125 L 142.980469 183.78125 C 142.980469 182.28125 144.195312 181.066406 145.695312 181.066406 L 174.585938 181.066406 C 176.089844 181.066406 177.304688 182.28125 177.304688 183.78125 Z M 177.304688 199.078125 "/>
<path style=" stroke:none;fill-rule:nonzero;fill:rgb(94.509804%,92.941176%,80.392157%);fill-opacity:1;" d="M 234.800781 199.078125 C 234.800781 200.582031 233.582031 201.796875 232.082031 201.796875 L 203.191406 201.796875 C 201.6875 201.796875 200.472656 200.578125 200.472656 199.078125 L 200.472656 183.78125 C 200.472656 182.28125 201.691406 181.066406 203.191406 181.066406 L 232.082031 181.066406 C 233.582031 181.066406 234.800781 182.28125 234.800781 183.78125 Z M 234.800781 199.078125 "/>
<path style=" stroke:none;fill-rule:nonzero;fill:rgb(94.509804%,92.941176%,80.392157%);fill-opacity:1;" d="M 193.761719 69.890625 C 193.761719 88.644531 178.558594 103.84375 159.808594 103.84375 C 141.054688 103.84375 125.855469 88.644531 125.855469 69.890625 C 125.855469 51.140625 141.054688 35.9375 159.808594 35.9375 C 178.558594 35.9375 193.761719 51.140625 193.761719 69.890625 Z M 193.761719 69.890625 "/>
<path style=" stroke:none;fill-rule:nonzero;fill:rgb(83.921569%,12.941176%,15.294118%);fill-opacity:1;" d="M 166.6875 90.53125 C 166.6875 92.738281 164.902344 94.527344 162.691406 94.527344 L 156.925781 94.527344 C 154.71875 94.527344 152.929688 92.734375 152.929688 90.53125 L 152.929688 49.253906 C 152.929688 47.046875 154.71875 45.257812 156.925781 45.257812 L 162.691406 45.257812 C 164.902344 45.257812 166.6875 47.042969 166.6875 49.253906 Z M 166.6875 90.53125 "/>
<path style=" stroke:none;fill-rule:nonzero;fill:rgb(83.921569%,12.941176%,15.294118%);fill-opacity:1;" d="M 139.167969 76.769531 C 136.960938 76.769531 135.171875 74.984375 135.171875 72.777344 L 135.171875 67.011719 C 135.171875 64.804688 136.960938 63.015625 139.167969 63.015625 L 180.449219 63.015625 C 182.652344 63.015625 184.445312 64.804688 184.445312 67.011719 L 184.445312 72.777344 C 184.445312 74.984375 182.652344 76.769531 180.449219 76.769531 Z M 139.167969 76.769531 "/>
<path style=" stroke:none;fill-rule:nonzero;fill:rgb(94.509804%,92.941176%,80.392157%);fill-opacity:1;" d="M 144.820312 266.367188 L 144.820312 227.308594 C 144.820312 225.222656 146.515625 223.53125 148.601562 223.53125 L 169.863281 223.53125 C 171.953125 223.53125 173.640625 225.222656 173.640625 227.308594 L 173.640625 266.367188 Z M 144.820312 266.367188 "/>
<path style=" stroke:none;fill-rule:nonzero;fill:rgb(91.372549%,89.019608%,76.862745%);fill-opacity:1;" d="M 144.820312 266.367188 L 144.820312 227.308594 C 144.820312 225.222656 146.515625 223.53125 148.601562 223.53125 L 159.425781 223.53125 L 159.515625 266.367188 Z M 144.820312 266.367188 "/>
</g>
</svg>
