<?xml version="1.0" encoding="UTF-8"?>
<svg xmlns="http://www.w3.org/2000/svg" xmlns:xlink="http://www.w3.org/1999/xlink" width="300px" height="300px" viewBox="0 0 300 300" version="1.1">
<g id="surface1">
<path style=" stroke:none;fill-rule:nonzero;fill:rgb(39.215686%,92.941176%,67.45098%);fill-opacity:1;" d="M 85.425781 236.226562 C 81.351562 236.226562 77.925781 232.800781 77.925781 228.726562 L 77.925781 185.976562 C 77.925781 146.226562 110.25 113.898438 150 113.898438 C 189.75 113.898438 222.074219 146.226562 222.074219 185.976562 L 222.074219 228.726562 C 222.074219 232.800781 218.648438 236.226562 214.574219 236.226562 Z M 85.425781 236.226562 "/>
<path style=" stroke:none;fill-rule:nonzero;fill:rgb(20%,23.529412%,30.980392%);fill-opacity:1;" d="M 183.726562 183.550781 C 178.226562 183.550781 173.726562 179.050781 173.726562 173.550781 L 173.726562 162.976562 C 173.726562 157.476562 178.226562 152.976562 183.726562 152.976562 C 189.226562 152.976562 193.726562 157.476562 193.726562 162.976562 L 193.726562 173.550781 C 193.726562 179.050781 189.226562 183.550781 183.726562 183.550781 Z M 116.273438 183.550781 C 110.773438 183.550781 106.273438 179.050781 106.273438 173.550781 L 106.273438 162.976562 C 106.273438 157.476562 110.773438 152.976562 116.273438 152.976562 C 121.773438 152.976562 126.273438 157.476562 126.273438 162.976562 L 126.273438 173.550781 C 126.273438 179.050781 121.773438 183.550781 116.273438 183.550781 Z M 116.273438 183.550781 "/>
<path style=" stroke:none;fill-rule:nonzero;fill:rgb(20%,23.529412%,30.980392%);fill-opacity:1;" d="M 215.574219 104.574219 L 228.550781 81.949219 C 235.449219 81.976562 242.175781 78.375 245.925781 71.875 C 251.5 62.148438 248.300781 49.675781 238.75 43.976562 C 229.226562 38.300781 216.976562 41.574219 211.398438 51.273438 C 207.675781 57.773438 207.898438 65.523438 211.300781 71.648438 L 198.773438 93.476562 C 183.757812 85.519531 167.019531 81.367188 150.023438 81.375 C 133.773438 81.367188 117.742188 85.167969 103.226562 92.476562 L 91.300781 71.675781 C 94.832031 65.332031 94.792969 57.605469 91.199219 51.300781 C 85.625 41.574219 73.375 38.300781 63.851562 44 C 54.324219 49.675781 51.101562 62.175781 56.675781 71.898438 C 60.226562 78.144531 66.867188 81.992188 74.050781 81.976562 L 86.226562 103.226562 C 61.425781 122.324219 45.425781 152.300781 45.425781 185.949219 L 45.425781 228.699219 C 45.425781 250.75 63.375 268.699219 85.425781 268.699219 L 214.601562 268.699219 C 236.648438 268.699219 254.601562 250.75 254.601562 228.699219 L 254.601562 185.949219 C 254.574219 153.101562 239.351562 123.75 215.574219 104.574219 Z M 234.574219 228.726562 C 234.574219 239.75 225.601562 248.726562 214.574219 248.726562 L 85.425781 248.726562 C 74.398438 248.726562 65.425781 239.75 65.425781 228.726562 L 65.425781 185.976562 C 65.425781 139.324219 103.375 101.398438 150 101.398438 C 196.648438 101.398438 234.574219 139.351562 234.574219 185.976562 Z M 234.574219 228.726562 "/>
<path style=" stroke:none;fill-rule:nonzero;fill:rgb(20%,23.529412%,30.980392%);fill-opacity:1;" d="M 170 232.875 L 130 232.875 C 124.5 232.875 120 228.375 120 222.875 L 120 222.5 C 120 217 124.5 212.5 130 212.5 L 170 212.5 C 175.5 212.5 180 217 180 222.5 L 180 222.875 C 180 228.375 175.5 232.875 170 232.875 Z M 170 232.875 "/>
<path style=" stroke:none;fill-rule:nonzero;fill:rgb(20%,23.529412%,30.980392%);fill-opacity:1;" d="M 162.199219 69.726562 C 159.300781 69.726562 156.574219 68.476562 154.675781 66.300781 L 147.023438 57.550781 L 141.574219 65.425781 C 139.707031 68.125 136.632812 69.742188 133.351562 69.75 L 115.75 69.75 C 110.226562 69.75 105.75 65.273438 105.75 59.75 C 105.75 54.226562 110.226562 49.75 115.75 49.75 L 128.125 49.75 L 137.898438 35.601562 C 139.648438 33.050781 142.476562 31.476562 145.574219 31.300781 C 148.675781 31.125 151.648438 32.398438 153.675781 34.726562 L 166.75 49.726562 L 186.75 49.601562 L 186.824219 49.601562 C 192.347656 49.578125 196.839844 54.039062 196.863281 59.5625 C 196.882812 65.085938 192.421875 69.578125 186.898438 69.601562 L 162.300781 69.75 C 162.25 69.726562 162.226562 69.726562 162.199219 69.726562 Z M 162.199219 69.726562 "/>
</g>
</svg>
