<?xml version="1.0" encoding="UTF-8"?>
<svg xmlns="http://www.w3.org/2000/svg" xmlns:xlink="http://www.w3.org/1999/xlink" width="50px" height="50px" viewBox="0 0 50 50" version="1.1">
<g id="surface1">
<path style=" stroke:none;fill-rule:evenodd;fill:rgb(0%,0%,0%);fill-opacity:1;" d="M 44.53125 25 L 42.953125 25 C 46.402344 20.414062 46.054688 13.855469 41.878906 9.683594 C 37.3125 5.113281 29.875 5.113281 25.335938 9.65625 L 24.21875 10.664062 L 23.128906 9.683594 C 18.5625 5.113281 11.125 5.113281 6.558594 9.683594 C 1.988281 14.25 1.988281 21.6875 6.554688 26.253906 L 23.664062 43.519531 C 23.664062 43.519531 23.664062 43.519531 23.667969 43.519531 C 23.667969 43.519531 23.667969 43.523438 23.667969 43.523438 C 23.722656 43.578125 23.789062 43.613281 23.855469 43.648438 C 23.878906 43.660156 23.898438 43.683594 23.925781 43.691406 C 24.019531 43.730469 24.117188 43.75 24.21875 43.75 C 24.320312 43.75 24.417969 43.730469 24.511719 43.691406 C 24.542969 43.679688 24.566406 43.65625 24.59375 43.640625 C 24.652344 43.605469 24.714844 43.574219 24.769531 43.523438 C 24.769531 43.523438 24.769531 43.519531 24.769531 43.519531 C 24.773438 43.519531 24.773438 43.519531 24.773438 43.519531 L 40.027344 28.125 L 32.8125 28.125 C 32.515625 28.125 32.246094 27.957031 32.113281 27.691406 L 31.449219 26.363281 L 28.875 35.371094 C 28.78125 35.707031 28.472656 35.9375 28.125 35.9375 L 28.105469 35.9375 C 27.746094 35.925781 27.441406 35.675781 27.363281 35.328125 L 24.183594 21.335938 L 22.632812 27.53125 C 22.546875 27.882812 22.234375 28.125 21.875 28.125 L 16.40625 28.125 C 15.972656 28.125 15.625 27.773438 15.625 27.34375 C 15.625 26.914062 15.972656 26.5625 16.40625 26.5625 L 21.265625 26.5625 L 23.460938 17.78125 C 23.546875 17.429688 23.859375 17.1875 24.21875 17.1875 L 24.226562 17.1875 C 24.589844 17.191406 24.898438 17.441406 24.980469 17.796875 L 28.210938 32.011719 L 30.5 24.003906 C 30.585938 23.695312 30.855469 23.472656 31.175781 23.441406 C 31.5 23.410156 31.804688 23.582031 31.949219 23.871094 L 33.296875 26.5625 L 44.53125 26.5625 C 44.964844 26.5625 45.3125 26.210938 45.3125 25.78125 C 45.3125 25.351562 44.964844 25 44.53125 25 "/>
</g>
</svg>
