<?xml version="1.0" encoding="UTF-8"?>
<svg xmlns="http://www.w3.org/2000/svg" xmlns:xlink="http://www.w3.org/1999/xlink" width="50px" height="50px" viewBox="0 0 50 50" version="1.1">
<g id="surface1">
<path style=" stroke:none;fill-rule:evenodd;fill:rgb(0%,0%,0%);fill-opacity:1;" d="M 16.714844 17.820312 L 7.890625 26.640625 C 5.824219 28.707031 4.6875 31.453125 4.6875 34.375 C 4.6875 37.296875 5.824219 40.042969 7.890625 42.109375 C 9.957031 44.175781 12.703125 45.3125 15.625 45.3125 C 18.546875 45.3125 21.292969 44.175781 23.359375 42.109375 L 32.183594 33.285156 Z M 16.714844 17.820312 "/>
<path style=" stroke:none;fill-rule:evenodd;fill:rgb(0%,0%,0%);fill-opacity:1;" d="M 39.898438 11.207031 C 39.746094 11.359375 39.546875 11.433594 39.347656 11.433594 C 39.148438 11.433594 38.945312 11.359375 38.792969 11.207031 C 36.359375 8.769531 32.390625 8.769531 29.957031 11.207031 C 29.648438 11.511719 29.15625 11.511719 28.851562 11.207031 C 28.546875 10.902344 28.546875 10.40625 28.851562 10.101562 C 31.894531 7.054688 36.855469 7.054688 39.898438 10.101562 C 40.203125 10.40625 40.203125 10.902344 39.898438 11.207031 M 42.109375 7.890625 C 40.042969 5.824219 37.296875 4.6875 34.375 4.6875 C 31.453125 4.6875 28.707031 5.824219 26.640625 7.890625 L 17.816406 16.714844 L 33.285156 32.183594 L 42.109375 23.359375 C 44.175781 21.292969 45.3125 18.546875 45.3125 15.625 C 45.3125 12.703125 44.175781 9.957031 42.109375 7.890625 "/>
</g>
</svg>
